# xmcd CD database file
#
# Track frame offsets:
#	150
#	17465
#	31007
#
# Disc length: 642 seconds
#
# Revision: 3
# Processed by: cddbd v1.5.2PL0 Copyright (c) Steve Scherf et al.
# Submitted via: CDex 1.70beta2
#
DISCID=11028003
DTITLE=Berryz工房 - ギャグ100回分愛してください
DYEAR=2005
DGENRE=JPop
TTITLE0=ギャグ100回分愛してください
TTITLE1=にぎやかな冬
TTITLE2=ギャグ100回分愛してください(Instrumental)
EXTD=YEAR: 2005
EXTT0=
EXTT1=
EXTT2=
PLAYORDER=
